<svg xmlns="http://www.w3.org/2000/svg" xmlns:xlink="http://www.w3.org/1999/xlink" width="711" height="329.72" viewBox="0 0 711 329.72">
  <defs>
    <clipPath id="clip-illustration_2">
      <rect width="711" height="329.72"/>
    </clipPath>
  </defs>
  <g id="illustration_2" data-name="illustration 2" clip-path="url(#clip-illustration_2)">
    <rect width="711" height="329.72" fill="#fff"/>
    <g id="Group_1852" data-name="Group 1852" transform="translate(-604.5 -496)">
      <path id="Background_Shape" data-name="Background Shape" d="M.9,207.952c18.031-105.275,200.48-45.3,320.092-77.847S582.112-54.014,675.767,20.234s-5.993,253.727-220.8,294.23S-17.134,313.227.9,207.952Z" transform="translate(604.5 496)" fill="rgba(217,208,170,0.2)" opacity="0.3"/>
      <path id="Path_1280" data-name="Path 1280" d="M873.65,377.179A22.725,22.725,0,0,0,860,368.9" transform="translate(329.746 211.71)" fill="none" stroke="#000" stroke-miterlimit="10" stroke-width="1"/>
      <path id="Path_1283" data-name="Path 1283" d="M801.7,449.6" transform="translate(364.502 163.599)" fill="none" stroke="#000" stroke-miterlimit="10" stroke-width="0.95"/>
      <path id="Path_1284" data-name="Path 1284" d="M857.044,340.1c-2.625,3.231-4.442,13.165-4.483,14.3-.4.687-2.383.888-4.361.929" transform="translate(336.781 228.879)" fill="none" stroke="#000" stroke-linecap="round" stroke-miterlimit="10" stroke-width="1.075"/>
      <path id="Path_1289" data-name="Path 1289" d="M881.5,417.9c2.908,1.252,17.042-2.988,18.173-7.269,1.211-6.34-8.319-24.594-16.8-21.161" transform="translate(316.928 199.7)" fill="none" stroke="#000" stroke-linecap="round" stroke-miterlimit="10" stroke-width="1"/>
      <path id="Path_1291" data-name="Path 1291" d="M815.1,266.3c0,10.9,27.542,8.077,27.542,22.049,0,6.057-3.311,7.511-5.25,7.511" transform="translate(356.514 272.876)" fill="#191847" stroke="#000" stroke-linecap="round" stroke-miterlimit="10" stroke-width="1.075"/>
      <path id="Path_1292" data-name="Path 1292" d="M811.5,274.5c0,1.212,1.535,4.6,5.977,8.8" transform="translate(358.66 267.988)" fill="none" stroke="#000" stroke-linecap="round" stroke-miterlimit="10" stroke-width="1.075"/>
      <path id="Path_1293" data-name="Path 1293" d="M826.227,302.9c-.484,1.615-4.927,9.45-4.927,10.419s2.221,2.221,2.221,2.908-.889,4.281,3.554,7.229c-.2,1.333-.363,6.179-.363,6.179" transform="translate(352.818 251.057)" fill="none" stroke="#000" stroke-linecap="round" stroke-miterlimit="10" stroke-width="1.075"/>
      <circle id="Ellipse_398" data-name="Ellipse 398" cx="0.606" cy="0.606" r="0.606" transform="translate(1179.934 559.489)"/>
      <path id="Path_1294" data-name="Path 1294" d="M829.744,340.8a9.193,9.193,0,0,1-2.544.727" transform="translate(349.301 228.462)" fill="none" stroke="#000" stroke-linecap="round" stroke-miterlimit="10" stroke-width="1.075"/>
      <path id="Path_1295" data-name="Path 1295" d="M788.546,381.362c-5.815-2.221-19.3,12.317-19.546,17.971,1.05,2.786,6.542,6.259,10.136,8.157" transform="translate(383.996 204.417)" fill="none" stroke="#000" stroke-miterlimit="10" stroke-width="0.95"/>
      <rect id="Rectangle_1590" data-name="Rectangle 1590" width="199.791" height="87.221" transform="translate(933.41 577)" fill="#f5f5f5"/>
      <path id="Path_1276" data-name="Path 1276" d="M853.919,460.921c0,1.09-7.067,36.062-18.819,36.062,13.286,1.211,19.869-.525,19.869-.525l2.342-2.1.808-2.342s.646-6.542.646-7.148c.04-.929.162-3.069.162-3.069l.2-4.038.525-10.1-2.1-3.392L856.14,460.8Z" transform="translate(344.59 156.922)" fill="#fff" stroke="#707070" stroke-width="1"/>
      <path id="Path_1282" data-name="Path 1282" d="M808.391,369.1c-22.857,9.531-17.809,66.431-16.234,70.429,2.665,6.784,35.659,1.938,38.607.121" transform="translate(371.139 211.59)" fill="none" stroke="#000" stroke-miterlimit="10" stroke-width="1"/>
      <path id="Path_1285" data-name="Path 1285" d="M692.368,422.667a119.53,119.53,0,0,0-11.63,12.519c-1.858-.888-21.2-11.065-22.655-11.711s-4.523-5.775-5.573-5.775c-.606,0-1.171,1.171-1.171,1.979a4.443,4.443,0,0,0,1.05,2.867c-1.373-.2-13.488-1.131-13.488-.323,0,2.1,13.569,4.886,14.619,5.452s23.14,21,30.813,21c2.988,0,16.073-8.965,16.073-9.934" transform="translate(461.559 182.617)" fill="none" stroke="#000" stroke-linecap="round" stroke-linejoin="round" stroke-miterlimit="10" stroke-width="1"/>
      <path id="Path_1286" data-name="Path 1286" d="M860.342,877.4v6.7H843.3l10.863-6.7" transform="translate(339.701 -91.44)" fill="none" stroke="#000" stroke-linecap="round" stroke-linejoin="round" stroke-miterlimit="10" stroke-width="1"/>
      <line id="Line_434" data-name="Line 434" y1="9.369" transform="translate(1200.043 776.59)" fill="none" stroke="#000" stroke-linecap="round" stroke-linejoin="round" stroke-miterlimit="10" stroke-width="1"/>
      <line id="Line_435" data-name="Line 435" y1="9.369" transform="translate(1193.945 776.59)" fill="none" stroke="#000" stroke-linecap="round" stroke-linejoin="round" stroke-miterlimit="10" stroke-width="1"/>
      <path id="Path_1287" data-name="Path 1287" d="M679.4,779.4v6.7h-17l10.823-6.7" transform="translate(447.549 -33.017)" fill="none" stroke="#000" stroke-linecap="round" stroke-linejoin="round" stroke-miterlimit="10" stroke-width="1"/>
      <line id="Line_436" data-name="Line 436" y1="9.369" transform="translate(1126.949 739.438)" fill="none" stroke="#000" stroke-linecap="round" stroke-linejoin="round" stroke-miterlimit="10" stroke-width="1"/>
      <line id="Line_437" data-name="Line 437" y1="7.713" transform="translate(1120.893 738.67)" fill="none" stroke="#000" stroke-linecap="round" stroke-linejoin="round" stroke-miterlimit="10" stroke-width="1"/>
      <rect id="Rectangle_1597" data-name="Rectangle 1597" width="73.538" height="43.049" transform="translate(1083.91 753.5)" stroke-width="1" stroke="#000" stroke-linecap="round" stroke-linejoin="round" stroke-miterlimit="10" fill="none"/>
      <path id="Path_1288" data-name="Path 1288" d="M879.829,450.948c.364,2.221,8.844,15.588,9.854,16.759-2.14,1.858-14.053,27.9-14.982,29.6,0,.969,2.908,4.159,3.958,5.209,1.777,0,21.767-25.724,21.767-28.632s.323-21.888-5.048-30.086" transform="translate(320.982 167.057)" fill="none" stroke="#000" stroke-linecap="round" stroke-miterlimit="10" stroke-width="1"/>
      <path id="Path_1290" data-name="Path 1290" d="M768.028,562.055c-1.05-1.05-3.958-4.24-3.958-5.209.444-.767,3.19-6.744,6.26-13.084-7.592,2.06-26.491,3.594-33.4,2.019a18.2,18.2,0,0,1-5.21-2.181c-1.817,1.171-28.551,19.869-40.908,38.2-.646,1.454-1.615,49.389-1.615,49.389l9.813.848,8.763-40.828c1.413,0,20.515-7.309,34.2-16.032l16.234,93.932h10.54l2.3-109.762C769.523,560.965,768.392,562.055,768.028,562.055Z" transform="translate(431.57 107.56)" fill="#ff9b21"/>
      <text id="Let_s_give_you_a_helping_hand_sir_and_seamless_shopping_experience" data-name="Let&apos;s give you a 
helping hand sir, and 
seamless shopping experience" transform="translate(1033.41 607)" fill="#707070" font-size="14" font-family="SegoeUI, Segoe UI"><tspan x="-49.42" y="0">Let&apos;s give you a </tspan><tspan x="-66.75" y="19">helping hand sir, and </tspan><tspan x="-93.69" y="38">seamless shopping experience</tspan></text>
      <text id="FIT_ASSISTANT" data-name="FIT 
ASSISTANT" transform="translate(1120.41 771)" fill="#707070" font-size="10" font-family="SegoeUI-Bold, Segoe UI" font-weight="700"><tspan x="-8.494" y="0">FIT </tspan><tspan x="-26.484" y="14">ASSISTANT</tspan></text>
      <circle id="Ellipse_391" data-name="Ellipse 391" cx="3.514" cy="3.514" r="3.514" transform="matrix(1, 0.017, -0.017, 1, 913.818, 784.911)" stroke-width="1" stroke="#000" stroke-linecap="round" stroke-linejoin="round" fill="none"/>
      <circle id="Ellipse_392" data-name="Ellipse 392" cx="3.514" cy="3.514" r="3.514" transform="matrix(1, 0.017, -0.017, 1, 883.295, 784.378)" stroke-width="1" stroke="#000" stroke-linecap="round" stroke-linejoin="round" fill="none"/>
      <circle id="Ellipse_393" data-name="Ellipse 393" cx="3.514" cy="3.514" r="3.514" transform="matrix(1, 0.017, -0.017, 1, 689.24, 780.991)" stroke-width="1" stroke="#000" stroke-linecap="round" stroke-linejoin="round" fill="none"/>
      <path id="Path_1232" data-name="Path 1232" d="M.062,143.191C1.411,121.758,26.45,102.036,47.6,77.622c-.379,9.181.245,16.609.665,17.362,1.68,3.047,26.752,7.307,35.356-.617,1.346-1.24,6.63-16.975,3.462-30.666a36.013,36.013,0,0,0,9.086,1.876c.057,2.265.466,34.886-1.34,43.191,1.158,2.1,9.717,1.373,17.745,1.373s19.809,1.155,20.967-.941c-1.818-8.3-.834-42.461-.781-44.726,1-.014,1.382-1.882,2.421-2.173,3.411-.932,4.59-2.1,4.59-2.1a67.7,67.7,0,0,1-2.531-9.265c-.308-1.542-1.69-2.968-2.339-4.67,1.421-.912,4.522-3.786,4.531-5.491a5.129,5.129,0,0,0-5.2-5.051,5.243,5.243,0,0,0-4.037,1.893c-3.816-1.178-8.746-2.542-9.724-3.485-1.823,1.761-5.627,2.939-7.943,2.939s-6.116-1.178-7.943-2.939c-.991.951-6.006,2.331-9.838,3.518a5.26,5.26,0,0,0-3.568-1.385,5.059,5.059,0,0,0-3.634,1.444,5.2,5.2,0,0,0-1.56,3.628,4.944,4.944,0,0,0,.754,2.612c-.253.413.306,1.337-.693.889.189-.428-3-1.433-2.976-1.9,0-2.48-1.517-7.763-2.6-11.777C90.353,16.452,99.951,4.547,111.9,1.1c21.866-6.333,51.463,15.576,71.263,43.09a136.623,136.623,0,0,1,20.9,42.428c-2.932-.893-5.708-1.8-6.422-2.48-1.818,1.761-5.627,2.935-7.943,2.935s-6.116-1.174-7.943-2.935c-1.57,1.509-13.32,4.109-14.315,5.283s-8.106,21.392-8.106,21.392,8.012,4.7,14.042,4.787c.053,2.265-2.854,35.314-4.66,43.619.9,1.625,8.2,3.2,15.18,3.828-11.478,10.834-26.095,19.78-41.36,26.972-17.854,8.4-36.61,14.418-55.263,15.427v-2.034H80v2.17a88.545,88.545,0,0,1-25.32-4.047C25.777,192.407-1.471,166.761.062,143.191Z" transform="matrix(1, 0.017, -0.017, 1, 688.838, 571.945)" fill="#f1f1f1"/>
      <path id="Path_1233" data-name="Path 1233" d="M8.958,2.935c-1.48-.9-2.754-.968-4.583-1.589a23.411,23.411,0,0,0-5.843-.6" transform="matrix(1, 0.017, -0.017, 1, 764.889, 616.17)" fill="none" stroke="#000" stroke-linecap="round" stroke-linejoin="round" stroke-width="1"/>
      <g id="Group_1444" data-name="Group 1444" transform="translate(734.896 610.818)">
        <path id="Path_1234" data-name="Path 1234" d="M1.259,1.51C-3.073,5.661,4.929,22,7.851,22.312c1.969.208,13.81-8.814,13.822-11.319C21.681,6.978,7.036-3.983,1.259,1.51Z" transform="matrix(1, 0.017, -0.017, 1, 0.389, 6.996)" fill="none" stroke="#000" stroke-linecap="round" stroke-linejoin="round" stroke-width="1"/>
        <path id="Path_1235" data-name="Path 1235" d="M38.264,0a.918.918,0,0,1,.112.318c.194,1.434-5.481,26.914-13.017,35.463-1.009,1.145-6.068,1.273-7.341,1.079C16.921,36.691,3.526,24.033,0,20.473" transform="matrix(1, 0.017, -0.017, 1, 8.201, 9.27)" fill="none" stroke="#000" stroke-linecap="round" stroke-linejoin="round" stroke-width="1"/>
        <path id="Path_1236" data-name="Path 1236" d="M-.983,15.691c1.662-.688,4.839-1.032,6.529.593C7.554,18.2,7.8,22.724,8.253,23.264,9.079,21.867,18.765,3.125,20.765,0" transform="matrix(1, 0.017, -0.017, 1, 19.347, 7.331)" fill="none" stroke="#000" stroke-linecap="round" stroke-linejoin="round" stroke-width="1"/>
        <path id="Path_1237" data-name="Path 1237" d="M7.085,9.811a5.076,5.076,0,0,0,3.447-4.75A5.27,5.27,0,0,0,0,5.062,4.911,4.911,0,0,0,.756,7.678" transform="matrix(1, 0.017, -0.017, 1, 39.324, 0)" fill="none" stroke="#000" stroke-linecap="round" stroke-linejoin="round" stroke-width="1"/>
      </g>
      <ellipse id="Ellipse_390" data-name="Ellipse 390" cx="5.266" cy="5.06" rx="5.266" ry="5.06" transform="matrix(1, 0.017, -0.017, 1, 817.348, 609.917)" fill="none" stroke="#000" stroke-linecap="round" stroke-linejoin="round" stroke-width="1"/>
      <path id="Path_1238" data-name="Path 1238" d="M10.135,14.09C8.31,11.255,7.289,6.537,4.761,4,3.435,2.67,2.244.549,0,0" transform="matrix(1, 0.017, -0.017, 1, 758.908, 613.399)" fill="none" stroke="#000" stroke-linecap="round" stroke-linejoin="round" stroke-width="1"/>
      <path id="Path_1239" data-name="Path 1239" d="M1.554,0C8.533,19.816,3.132,37.707,3.7,39.329c1.49,4.1,29.073,10.045,36.7-.641,1.208-1.672,1.074-1.972-1.873-20.635" transform="matrix(1, 0.017, -0.017, 1, 734.883, 629.325)" fill="none" stroke="#000" stroke-linecap="round" stroke-linejoin="round" stroke-width="1"/>
      <path id="Path_1240" data-name="Path 1240" d="M8.589,0C5.617.934,1.939,1.853,0,4.714" transform="matrix(1, 0.017, -0.017, 1, 736.736, 614.375)" fill="none" stroke="#000" stroke-linecap="round" stroke-linejoin="round" stroke-width="1"/>
      <path id="Path_1242" data-name="Path 1242" d="M45.546,0c2.274,6.466,5.383,16.049,5.383,16.049S49.5,18.3,43.865,18.389c-.05,2.305-.919,37.705.777,46.157-1.087,2.133-15.392,1.675-22.926,1.675S7.546,67.37,6.459,65.237c1.711-8.451.654-42.02.581-44.325a15.1,15.1,0,0,1-6.026-1.506" transform="matrix(1, 0.017, -0.017, 1, 776.641, 617.184)" fill="none" stroke="#000" stroke-linecap="round" stroke-linejoin="round" stroke-width="1"/>
      <path id="Path_1243" data-name="Path 1243" d="M0,3.584C3.91,2.385,9.164.967,10.185,0c1.844,1.765,5.7,2.939,8.052,2.939S24.438,1.765,26.29,0c.992.942,5.986,2.307,9.855,3.485" transform="matrix(1, 0.017, -0.017, 1, 782.787, 607.536)" fill="none" stroke="#000" stroke-linecap="round" stroke-linejoin="round" stroke-width="1"/>
      <path id="Path_1244" data-name="Path 1244" d="M30.617,75.864c-8.135,0-19.965,1.312-21.139-.788,1.844-8.3-.712-41.58-.766-43.862A10.427,10.427,0,0,1,0,26.675S7.193,6.457,8.218,5.283,21.14,1.509,22.731,0c1.848,1.761,5.7,2.935,8.052,2.935S36.984,1.761,38.836,0c1.6,1.509,13.509,4.109,14.513,5.283s8.222,21.392,8.222,21.392-1.69,3.666-7.783,3.753c-.058,2.265-1.066,35.557.766,43.862C53.38,76.389,38.757,75.864,30.617,75.864Z" transform="matrix(1, 0.017, -0.017, 1, 846.074, 658.843)" fill="#3c7738"/>
      <path id="Path_1253" data-name="Path 1253" d="M22.461,18.108H.726a.732.732,0,0,1-.463-1.294L20.519.168a.723.723,0,0,1,.926,0l6.717,5.539" transform="matrix(1, 0.017, -0.017, 1, 828.039, 657.555)" fill="none" stroke="#000" stroke-linecap="round" stroke-linejoin="round" stroke-width="1"/>
      <path id="Path_1254" data-name="Path 1254" d="M6.345,3.06A3.175,3.175,0,0,0,0,3.06" transform="matrix(1, 0.017, -0.017, 1, 849.133, 648.581)" fill="none" stroke="#000" stroke-linecap="round" stroke-linejoin="round" stroke-width="1"/>
      <line id="Line_429" data-name="Line 429" y1="6.291" transform="matrix(1, 0.017, -0.017, 1, 849.127, 651.649)" fill="none" stroke="#000" stroke-linecap="round" stroke-linejoin="round" stroke-width="1"/>
      <path id="Path_1255" data-name="Path 1255" d="M0,3.111,3.584.168a.723.723,0,0,1,.926,0L8.123,3.131" transform="matrix(1, 0.017, -0.017, 1, 873.354, 658.362)" fill="none" stroke="#000" stroke-linecap="round" stroke-linejoin="round" stroke-width="1"/>
      <path id="Path_1256" data-name="Path 1256" d="M6.345,3.06A3.175,3.175,0,0,0,0,3.06" transform="matrix(1, 0.017, -0.017, 1, 877.033, 649.067)" fill="none" stroke="#000" stroke-linecap="round" stroke-linejoin="round" stroke-width="1"/>
      <line id="Line_430" data-name="Line 430" y1="6.291" transform="matrix(1, 0.017, -0.017, 1, 876.98, 652.135)" fill="none" stroke="#000" stroke-linecap="round" stroke-linejoin="round" stroke-width="1"/>
      <path id="Path_1257" data-name="Path 1257" d="M.546,2.688,3.709.167a.677.677,0,0,1,.891,0l19.481,16.61a.743.743,0,0,1,.22.81.7.7,0,0,1-.665.481H0" transform="matrix(1, 0.017, -0.017, 1, 820.816, 657.445)" fill="none" stroke="#000" stroke-linecap="round" stroke-linejoin="round" stroke-width="1"/>
      <path id="Path_1258" data-name="Path 1258" d="M6.345,3.06A3.175,3.175,0,0,0,0,3.06" transform="matrix(1, 0.017, -0.017, 1, 824.416, 648.149)" fill="none" stroke="#000" stroke-linecap="round" stroke-linejoin="round" stroke-width="1"/>
      <line id="Line_431" data-name="Line 431" y1="6.291" transform="matrix(1, 0.017, -0.017, 1, 824.404, 651.218)" fill="none" stroke="#000" stroke-linecap="round" stroke-linejoin="round" stroke-width="1"/>
      <path id="Path_1259" data-name="Path 1259" d="M21.461.175,41.737,16.821a.732.732,0,0,1-.467,1.294H.726a.732.732,0,0,1-.463-1.294L20.519.175A.723.723,0,0,1,21.461.175Z" transform="matrix(1, 0.017, -0.017, 1, 700.254, 655.334)" fill="none" stroke="#000" stroke-linecap="round" stroke-linejoin="round" stroke-width="1"/>
      <path id="Path_1260" data-name="Path 1260" d="M6.345,3.06A3.175,3.175,0,0,0,0,3.06" transform="matrix(1, 0.017, -0.017, 1, 720.82, 646.341)" fill="none" stroke="#000" stroke-linecap="round" stroke-linejoin="round" stroke-width="1"/>
      <line id="Line_432" data-name="Line 432" y1="6.291" transform="matrix(1, 0.017, -0.017, 1, 720.781, 649.409)" fill="none" stroke="#000" stroke-linecap="round" stroke-linejoin="round" stroke-width="1"/>
      <path id="Path_1261" data-name="Path 1261" d="M0,13.745H22.529L7.375,5.936,7.333,0H0Z" transform="matrix(1, 0.017, -0.017, 1, 765.221, 776.728)" fill="none" stroke="#000" stroke-linecap="round" stroke-linejoin="round" stroke-width="1"/>
      <path id="Path_1262" data-name="Path 1262" d="M16.163,13.745H0L3.654,0h8.59Z" transform="matrix(1, 0.017, -0.017, 1, 732.293, 776.153)" fill="none" stroke="#000" stroke-linecap="round" stroke-linejoin="round" stroke-width="1"/>
      <path id="Path_1264" data-name="Path 1264" d="M50.022,0H0V133.3" transform="matrix(1, 0.017, -0.017, 1, 685.908, 647.213)" fill="none" stroke="#000" stroke-linecap="round" stroke-linejoin="round" stroke-width="1"/>
      <path id="Path_1265" data-name="Path 1265" d="M94.174,133.3V0L4.39-.178" transform="matrix(1, 0.017, -0.017, 1, 816.252, 649.488)" fill="none" stroke="#000" stroke-linecap="round" stroke-linejoin="round" stroke-width="1"/>
      <path id="Path_1266" data-name="Path 1266" d="M0,5.072V0H30.527V5.072" transform="matrix(1, 0.017, -0.017, 1, 892.9, 784.141)" fill="none" stroke="#000" stroke-linecap="round" stroke-linejoin="round" stroke-width="1"/>
      <path id="Path_1267" data-name="Path 1267" d="M0,5.072V0H30.531V5.072" transform="matrix(1, 0.017, -0.017, 1, 668.318, 780.221)" fill="none" stroke="#000" stroke-linecap="round" stroke-linejoin="round" stroke-width="1"/>
      <circle id="Ellipse_394" data-name="Ellipse 394" cx="3.514" cy="3.514" r="3.514" transform="matrix(1, 0.017, -0.017, 1, 664.713, 785.458)" stroke-width="1" stroke="#000" stroke-linecap="round" stroke-linejoin="round" fill="none"/>
      <path id="Path_1268" data-name="Path 1268" d="M31.164,1.451,10.5,107.6H0L1.236.153C6.064,2.128,20.243,3.592,31.164,1.451Z" transform="matrix(1, 0.017, -0.017, 1, 736.66, 668.824)" fill="#707070"/>
      <path id="Path_1269" data-name="Path 1269" d="M21.4,0l.306.074V108.968H12.2L.012,56.632S-.814,15.658,11.082,3.216C15.191,2.641,18.862,1.616,21.4,0Z" transform="matrix(1, 0.017, -0.017, 1, 754.219, 667.762)" fill="#707070"/>
      <g id="Head_Front_Short_Beard" data-name="Head/Front/Short Beard" transform="translate(745.451 581.405)">
        <g id="Head" transform="translate(0 2.282)">
          <path id="Head-2" data-name="Head" d="M5.136,14.96c-2.585-2.343-4.321-5.2-4.025-8.4C1.975-2.785,19.1-.728,22.437,3.99s2.936,16.687-1.37,17.53c-1.715.336-5.364-.485-9.081-2.184L13.956,29.8,0,30.837Z" transform="translate(0 0)" fill="none" stroke="#000" stroke-width="1"/>
        </g>
        <path id="Hair" d="M11.233,20.736c-.9-2.241-1.238-8.693-1.321-10.6q-.2-.019-.4-.02a3.089,3.089,0,0,0-3.335,2.762,2.547,2.547,0,0,0,1,1.976c-.772.9-1.637,1.844-2.628,2.816A8.322,8.322,0,0,1,1.708,5.2C2.714,2.657,4.992,1.3,7.682.664A11.562,11.562,0,0,1,14.034.276a24.019,24.019,0,0,1,8.034,1.773c0,2.934-.687,3.8-6.553,3.728a10.066,10.066,0,0,0-3.7,3.138c.008.095.784,8.835,4.053,8.835,3.287,0,6.076-1.728,7.518-1.728,1.051,0,.817,1.089.12,1.9-.575.667-3.375,1.309-3.375,2.342,0,.583.705.582,1.319.581.473,0,.893,0,.893.266,0,1.013.389,2.919-1.736,2.919C18.454,24.027,12.289,23.378,11.233,20.736Z" transform="translate(0.375 0)"/>
      </g>
    </g>
  </g>
</svg>
